<?xml version="1.0" encoding="UTF-8"?>
<svg width="107px" height="32px" viewBox="0 0 107 32" version="1.1" xmlns="http://www.w3.org/2000/svg" xmlns:xlink="http://www.w3.org/1999/xlink">
    <!-- Generator: sketchtool 53.2 (72643) - https://sketchapp.com -->
    <title>662C2BEE-575C-4726-9E5D-3013235BFD12@3x</title>
    <desc>Created with sketchtool.</desc>
    <g id="Homepage" stroke="none" stroke-width="1" fill="none" fill-rule="evenodd">
        <g id="101_Homepage" transform="translate(-164.000000, -4000.000000)" fill="#2E2C2C" fill-rule="nonzero">
            <g id="Group-16" transform="translate(164.000000, 3992.000000)">
                <g id="Logo/Black" transform="translate(0.000000, 8.000000)">
                    <g id="Logo/Black-Gray">
                        <path d="M6.47433646,17.6456371 L15.0577089,17.6456371 C15.340755,17.6456371 15.5508953,17.3743888 15.4713422,17.1024962 C14.882735,15.0899324 13.4960236,13.3574224 10.7931479,13.3574224 C8.22729231,13.3574224 6.6285108,15.1449123 6.06456292,17.0881069 C5.98372325,17.3662277 6.18507194,17.6456371 6.47433646,17.6456371 Z M20.845358,22.0231937 L6.26998547,22.0231937 C6.01267084,22.0231937 5.808749,22.2493413 5.84348648,22.504697 C6.1616989,24.8462808 7.89128203,27.1154887 11.1053561,27.1154887 C13.536336,27.1154887 15.0699312,26.0534753 16.3693701,23.9296634 C16.4755124,23.7563479 16.6907989,23.6848312 16.8809973,23.7552741 L20.5730333,25.1233277 C20.8106205,25.2115962 20.9191215,25.4852069 20.8104061,25.7143613 C19.0420113,29.4454752 16.0352899,31.8506294 10.7931477,31.8506294 C3.07735426,31.8506294 8.5771538e-05,25.5519988 8.5771538e-05,20.2363481 C8.5771538e-05,14.9206974 3.07735426,8.62228161 10.7931477,8.62228161 C18.2857207,8.62228161 21.2740013,14.8313551 21.2740013,19.7449656 L21.2740013,21.5938782 C21.2740013,21.8307641 21.0820874,22.0231937 20.845358,22.0231937 Z M31.6813499,27.1154476 C34.2234041,27.1154476 36.8994762,25.3734878 36.8994762,22.4698637 L36.8994762,22.4528972 C36.8994762,22.2155818 36.707348,22.0231523 36.4704041,22.0231523 L33.1977908,22.0231523 C30.8339271,22.0231523 29.3623018,22.9165751 29.3623018,24.9267764 C29.3623018,25.9988838 30.1203078,27.1154476 31.6813499,27.1154476 Z M24.8286323,14.9715546 C24.5934039,14.9176485 24.4482355,14.6796888 24.5072035,14.4453801 C25.3827165,10.9726284 28.5611955,8.62245391 32.9747847,8.62245391 C38.3267145,8.62245391 42.4298107,10.8557962 42.4298107,18.0474203 L42.4298107,31.063474 C42.4298107,31.3007894 42.2376825,31.4932189 42.0007386,31.4932189 L38.2312937,31.4932189 C38.0273718,31.4932189 37.8515402,31.3493263 37.8107987,31.1489505 L37.4720011,29.4776485 C37.4033839,29.139823 36.9841754,29.0152592 36.7457305,29.2637424 C35.2397967,30.8328163 33.234458,31.8505881 30.3879149,31.8505881 C26.5524259,31.8505881 23.5643598,29.4828028 23.5643598,25.0161183 C23.5643598,20.549219 27.4890512,17.6455948 33.1531895,17.6455948 L36.4704039,17.6455948 C36.7073478,17.6455948 36.899476,17.4533801 36.899476,17.2158499 L36.899476,16.6628297 C36.899476,14.1614606 35.02644,13.3573801 32.9747847,13.3573801 C31.5010151,13.3573801 29.9877907,13.7952861 29.2227085,15.6104807 C29.14144,15.803125 28.9353738,15.9115814 28.7320953,15.8649774 L24.8286323,14.9715546 Z M59.8596801,30.6840273 C59.9212212,30.8966447 59.8103615,31.1193561 59.6060108,31.2039736 C58.4845479,31.668081 57.3958926,31.8506313 56.3074517,31.8506313 C51.2231291,31.8506313 48.0564437,29.1256917 48.0564437,23.5420137 L48.0564437,14.1443223 C48.0564437,13.9070069 47.8643154,13.7145774 47.6273716,13.7145774 L45.0066221,13.7145774 C44.7696782,13.7145774 44.5775499,13.5223626 44.5775499,13.2848324 L44.5775499,9.40939609 C44.5775499,9.17208066 44.7696782,8.97965112 45.0066221,8.97965112 L47.6273716,8.97965112 C47.8643154,8.97965112 48.0564437,8.78743635 48.0564437,8.54990615 L48.0564437,3.58883226 C48.0564437,3.4408591 48.1323515,3.3036242 48.2571491,3.22502017 L52.9293395,0.281449663 C53.2149587,0.101476506 53.5867783,0.30700671 53.5867783,0.645046983 L53.5867783,8.54990615 C53.5867783,8.78743635 53.7789066,8.97965112 54.0158505,8.97965112 L59.0894517,8.97965112 C59.3263956,8.97965112 59.5185238,9.17208066 59.5185238,9.40939609 L59.5185238,13.2848324 C59.5185238,13.5223626 59.3263956,13.7145774 59.0894517,13.7145774 L54.0158505,13.7145774 C53.7789066,13.7145774 53.5867783,13.9070069 53.5867783,14.1443223 L53.5867783,23.4526715 C53.5867783,26.2222822 54.6572072,27.1154903 56.5304577,27.1154903 C57.1385779,27.1154903 57.6607122,27.0291547 58.2347382,26.787544 C58.4703956,26.6885373 58.7401471,26.8178259 58.8115519,27.0639467 L59.8596801,30.6840273 Z M95.9061405,4.9816267 C93.0070624,4.9816267 90.7326156,7.39343873 90.7326156,11.8605527 C90.7326156,16.3276667 93.0070624,18.7396935 95.9061405,18.7396935 C98.8052186,18.7396935 101.124267,16.3276667 101.124267,11.8605527 C101.124267,7.39343873 98.8052186,4.9816267 95.9061405,4.9816267 Z M96.6643611,23.4746193 C94.8346396,23.4746193 93.0628139,22.7231563 91.9289141,21.7784046 C91.6480123,21.5440959 91.2232287,21.7403912 91.2232287,22.1065657 L91.2232287,31.4750486 C91.2232287,31.7127936 91.0308861,31.9052231 90.7937277,31.9052231 L86.122395,31.9052231 C85.8852367,31.9052231 85.692894,31.7127936 85.692894,31.4750486 L85.692894,1.0340295 C85.692894,0.796499308 85.8852367,0.603855019 86.122395,0.603855019 L90.7937277,0.603855019 C91.0308861,0.603855019 91.2232287,0.796499308 91.2232287,1.0340295 L91.2232287,1.71440532 C91.2232287,2.09303618 91.6731005,2.27773416 91.9479983,2.01786839 C92.91786,1.10082145 94.5904051,0.246485904 96.6643611,0.246485904 C103.443529,0.246485904 106.922423,4.93674078 106.922423,11.8605526 C106.922423,18.7845792 103.443529,23.4746193 96.6643611,23.4746193 Z M76.624801,22.6878073 L76.624801,20.7443978 C76.624801,20.3479414 76.1346166,20.1634582 75.8743,20.4621965 C74.2787348,22.2919952 72.1533159,23.4747066 69.6672277,23.4747066 C65.6533338,23.4747066 62.7542556,21.1964784 62.7542556,16.6849078 L62.7542556,1.03347116 C62.7542556,0.796155714 62.9463838,0.603940944 63.1833277,0.603940944 L67.8557327,0.603940944 C68.0926765,0.603940944 68.2845904,0.796155714 68.2845904,1.03347116 L68.2845904,15.0322903 C68.2845904,17.7123441 69.6226265,18.7395656 71.495877,18.7395656 C74.1719493,18.7395656 76.624801,15.5236729 76.624801,9.58241097 L76.624801,1.03347116 C76.624801,0.796155714 76.8169293,0.603940944 77.0536587,0.603940944 L81.7262781,0.603940944 C81.963222,0.603940944 82.1551358,0.796155714 82.1551358,1.03347116 L82.1551358,22.6878073 C82.1551358,22.924908 81.963222,23.1173375 81.7262781,23.1173375 L77.0536587,23.1173375 C76.8169293,23.1173375 76.624801,22.924908 76.624801,22.6878073 Z M81.5020276,31.905289 L63.2953024,31.905289 C62.9346331,31.905289 62.6421522,31.6125642 62.6421522,31.2511145 L62.6421522,29.9822823 C62.6421522,29.6208326 62.9346331,29.3281078 63.2953024,29.3281078 L81.5020276,29.3281078 C81.8626969,29.3281078 82.1551778,29.6208326 82.1551778,29.9822823 L82.1551778,31.2511145 C82.1551778,31.6125642 81.8626969,31.905289 81.5020276,31.905289 Z" id="Combined-Shape"></path>
                    </g>
                </g>
            </g>
        </g>
    </g>
</svg>