<?xml version="1.0" encoding="UTF-8"?>
<svg width="80px" height="24px" viewBox="0 0 80 24" version="1.1" xmlns="http://www.w3.org/2000/svg" xmlns:xlink="http://www.w3.org/1999/xlink">
    <!-- Generator: sketchtool 53.2 (72643) - https://sketchapp.com -->
    <title>BB953847-F81F-4B41-B0EB-72CF04BC9C35@3x</title>
    <desc>Created with sketchtool.</desc>
    <g id="Homepage" stroke="none" stroke-width="1" fill="none" fill-rule="evenodd">
        <g id="Homepage_SignUp" transform="translate(-679.000000, -220.000000)" fill="#FF5B2E" fill-rule="nonzero">
            <g id="Group-4" transform="translate(446.000000, 156.000000)">
                <g id="Logo/Red" transform="translate(233.000000, 64.000000)">
                    <g id="Combined-Shape">
                        <path d="M4.84062525,13.2342282 L11.2581002,13.2342282 C11.4697234,13.2342282 11.6268377,13.0307919 11.5673587,12.8268725 C11.1272786,11.3174497 10.090485,10.0180671 8.06964329,10.0180671 C6.15124649,10.0180671 4.95589579,11.3586846 4.53425251,12.8160805 C4.47381162,13.0246711 4.62435271,13.2342282 4.84062525,13.2342282 Z M15.5853146,16.517396 L4.68783968,16.517396 C4.49545491,16.517396 4.34298998,16.6870067 4.36896192,16.8785235 C4.60687776,18.6347114 5.90002405,20.3366174 8.30307014,20.3366174 C10.1206253,20.3366174 11.2672385,19.5401074 12.2387816,17.9472483 C12.3181403,17.8172617 12.4791022,17.7636242 12.6213066,17.8164564 L15.3817074,18.8424966 C15.5593427,18.908698 15.6404649,19.113906 15.5591824,19.2857718 C14.237018,22.0841074 11.989002,23.8879732 8.06964329,23.8879732 C2.30082565,23.8879732 6.4128256e-05,19.164 6.4128256e-05,15.1772617 C6.4128256e-05,11.1905235 2.30082565,6.46671141 8.06964329,6.46671141 C13.6715671,6.46671141 15.9057956,11.1235168 15.9057956,14.8087248 L15.9057956,16.1954094 C15.9057956,16.3730738 15.7623086,16.517396 15.5853146,16.517396 Z M23.68699,20.3365852 C25.5875912,20.3365852 27.5883928,19.0301154 27.5883928,16.8523973 L27.5883928,16.8396725 C27.5883928,16.6616859 27.4447455,16.5173638 27.2675912,16.5173638 L24.8207776,16.5173638 C23.0534028,16.5173638 21.9531222,17.1874309 21.9531222,18.6950819 C21.9531222,19.4991624 22.5198557,20.3365852 23.68699,20.3365852 Z M18.5634629,11.2286658 C18.3875912,11.1882362 18.2790541,11.0097664 18.3231423,10.8340349 C18.9777315,8.22947114 21.3541643,6.46684027 24.6540441,6.46684027 C28.655487,6.46684027 31.7232224,8.14184698 31.7232224,13.5355651 L31.7232224,23.2976054 C31.7232224,23.4755919 31.5795752,23.6199141 31.4024208,23.6199141 L28.5841443,23.6199141 C28.4316794,23.6199141 28.3002164,23.5119946 28.2697555,23.3617128 L28.0164489,22.1082362 C27.9651463,21.8548671 27.6517194,21.7614443 27.4734429,21.9478067 C26.347511,23.1246121 24.8481924,23.8879409 22.7199359,23.8879409 C19.8522806,23.8879409 17.6182124,22.112102 17.6182124,18.7620886 C17.6182124,15.4119141 20.5525611,13.234196 24.7874309,13.234196 L27.2675912,13.234196 C27.4447455,13.234196 27.5883928,13.0900349 27.5883928,12.9118872 L27.5883928,12.4971221 C27.5883928,10.6210953 26.187992,10.0180349 24.6540441,10.0180349 C23.5521603,10.0180349 22.4207776,10.3464644 21.8487535,11.7078604 C21.787992,11.8523436 21.6339238,11.9336859 21.4819399,11.8987329 L18.5634629,11.2286658 Z M44.7549018,23.0130201 C44.8009138,23.1724832 44.7180281,23.3395168 44.5652425,23.4029799 C43.7267655,23.7510604 42.9128176,23.8879732 42.0990301,23.8879732 C38.2976673,23.8879732 35.9300521,21.8442685 35.9300521,17.6565101 L35.9300521,10.6082416 C35.9300521,10.430255 35.7864048,10.2859329 35.6092505,10.2859329 L33.6498116,10.2859329 C33.4726573,10.2859329 33.32901,10.1417718 33.32901,9.96362416 L33.32901,7.05704698 C33.32901,6.8790604 33.4726573,6.73473826 33.6498116,6.73473826 L35.6092505,6.73473826 C35.7864048,6.73473826 35.9300521,6.59057718 35.9300521,6.41242953 L35.9300521,2.69162416 C35.9300521,2.5806443 35.9868056,2.47771812 36.0801122,2.4187651 L39.5733387,0.211087248 C39.7868858,0.0761073826 40.0648818,0.230255034 40.0648818,0.483785235 L40.0648818,6.41242953 C40.0648818,6.59057718 40.2085291,6.73473826 40.3856834,6.73473826 L44.1790301,6.73473826 C44.3561844,6.73473826 44.4998317,6.8790604 44.4998317,7.05704698 L44.4998317,9.96362416 C44.4998317,10.1417718 44.3561844,10.2859329 44.1790301,10.2859329 L40.3856834,10.2859329 C40.2085291,10.2859329 40.0648818,10.430255 40.0648818,10.6082416 L40.0648818,17.5895034 C40.0648818,19.6667114 40.8652024,20.3366174 42.2657635,20.3366174 C42.7204329,20.3366174 43.1108136,20.2718658 43.539992,20.0906577 C43.7161844,20.0164027 43.9178677,20.1133691 43.9712545,20.2979597 L44.7549018,23.0130201 Z M71.705523,3.73622013 C69.537988,3.73622013 67.8374669,5.54507919 67.8374669,8.89541477 C67.8374669,12.2457503 69.537988,14.0547705 71.705523,14.0547705 C73.8730581,14.0547705 75.6069259,12.2457503 75.6069259,8.89541477 C75.6069259,5.54507919 73.8730581,3.73622013 71.705523,3.73622013 Z M72.2724168,17.6059651 C70.9044008,17.6059651 69.5796713,17.0423678 68.7318958,16.333804 C68.5218758,16.1580725 68.2042806,16.305294 68.2042806,16.5799248 L68.2042806,23.6062872 C68.2042806,23.784596 68.0604729,23.9289181 67.8831583,23.9289181 L64.3905731,23.9289181 C64.2132585,23.9289181 64.0694509,23.784596 64.0694509,23.6062872 L64.0694509,0.775522148 C64.0694509,0.597374497 64.2132585,0.452891275 64.3905731,0.452891275 L67.8831583,0.452891275 C68.0604729,0.452891275 68.2042806,0.597374497 68.2042806,0.775522148 L68.2042806,1.28580403 C68.2042806,1.56977718 68.5406333,1.70830067 68.7461643,1.51340134 C69.4712946,0.825616107 70.7217956,0.18486443 72.2724168,0.18486443 C77.3409539,0.18486443 79.941996,3.7025557 79.941996,8.89541477 C79.941996,14.0884349 77.3409539,17.6059651 72.2724168,17.6059651 Z M57.2895711,17.015855 L57.2895711,15.558298 C57.2895711,15.2609557 56.9230782,15.1225933 56.7284489,15.346647 C55.535503,16.718996 53.9464048,17.6060295 52.0876473,17.6060295 C49.0866052,17.6060295 46.9190701,15.8973584 46.9190701,12.5136805 L46.9190701,0.775103356 C46.9190701,0.597116779 47.0627174,0.452955705 47.2398717,0.452955705 L50.7332585,0.452955705 C50.9104128,0.452955705 51.0538998,0.597116779 51.0538998,0.775103356 L51.0538998,11.2742174 C51.0538998,13.2842577 52.0543006,14.0546738 53.4548617,14.0546738 C55.4556633,14.0546738 57.2895711,11.6427544 57.2895711,7.18680805 L57.2895711,0.775103356 C57.2895711,0.597116779 57.4332184,0.452955705 57.6102124,0.452955705 L61.1037595,0.452955705 C61.2809138,0.452955705 61.4244008,0.597116779 61.4244008,0.775103356 L61.4244008,17.015855 C61.4244008,17.1936805 61.2809138,17.3380027 61.1037595,17.3380027 L57.6102124,17.3380027 C57.4332184,17.3380027 57.2895711,17.1936805 57.2895711,17.015855 Z M60.9360962,23.9289664 L47.3235912,23.9289664 C47.0539319,23.9289664 46.8352545,23.7094228 46.8352545,23.4383356 L46.8352545,22.4867114 C46.8352545,22.2156242 47.0539319,21.9960805 47.3235912,21.9960805 L60.9360962,21.9960805 C61.2057555,21.9960805 61.4244329,22.2156242 61.4244329,22.4867114 L61.4244329,23.4383356 C61.4244329,23.7094228 61.2057555,23.9289664 60.9360962,23.9289664 Z"></path>
                    </g>
                </g>
            </g>
        </g>
    </g>
</svg>