<?xml version="1.0" standalone="no"?>
<!DOCTYPE svg PUBLIC "-//W3C//DTD SVG 20010904//EN"
 "http://www.w3.org/TR/2001/REC-SVG-20010904/DTD/svg10.dtd">
<svg version="1.0" xmlns="http://www.w3.org/2000/svg"
 width="240.000000pt" height="240.000000pt" viewBox="0 0 240.000000 240.000000"
 preserveAspectRatio="xMidYMid meet">
<metadata>
Created by potrace 1.11, written by Peter Selinger 2001-2013
</metadata>
<g transform="translate(0.000000,240.000000) scale(0.100000,-0.100000)"
fill="#000000" stroke="none">
<path d="M1135 1521 l-60 -38 2 -62 c2 -65 -1 -67 -59 -62 -15 2 -18 -6 -18
-53 l0 -56 38 0 39 0 1 -134 c1 -140 9 -178 50 -224 26 -29 93 -50 149 -46 59
4 65 9 57 52 -8 47 -20 61 -44 55 -32 -8 -66 5 -77 29 -5 13 -10 78 -11 145
l0 122 66 3 66 3 1 47 c2 53 -2 57 -72 57 -24 0 -47 2 -51 5 -5 3 -9 46 -10
96 0 50 -2 93 -4 95 -2 2 -30 -13 -63 -34z"/>
<path d="M2138 1550 c-20 -4 -48 -14 -62 -24 -14 -9 -27 -14 -27 -11 -1 3 -2
11 -3 18 -1 8 -20 12 -61 12 l-60 0 0 -350 0 -350 60 0 60 0 1 107 c0 60 3
110 6 113 2 3 22 -4 44 -14 41 -20 116 -22 165 -3 106 41 162 193 123 340 -30
116 -130 182 -246 162z m64 -115 c56 -23 83 -155 47 -227 -24 -47 -54 -68
-100 -68 -91 0 -141 131 -93 242 25 56 86 78 146 53z"/>
<path d="M1409 1522 c0 -15 0 -107 0 -205 0 -154 2 -183 18 -209 31 -53 67
-73 133 -73 50 0 66 5 105 33 25 17 48 32 50 32 3 0 5 -14 5 -30 l0 -31 62 3
61 3 0 225 c-1 124 -2 237 -2 251 -1 25 -3 26 -61 26 l-60 -1 -1 -35 c0 -20 0
-74 -1 -121 0 -120 -13 -174 -53 -215 -38 -41 -81 -47 -110 -15 -23 25 -23 29
-24 226 l-1 160 -60 2 c-59 1 -60 1 -61 -26z"/>
<path d="M159 1350 c-103 -35 -162 -135 -155 -265 7 -115 79 -214 170 -233
122 -26 230 16 282 111 14 26 14 28 -11 37 -15 6 -35 15 -45 20 -15 8 -26 3
-55 -25 -55 -51 -126 -59 -171 -18 -26 24 -49 71 -40 80 4 5 83 8 174 8 l167
0 1 46 c2 98 -53 196 -130 233 -52 25 -124 27 -187 6z m125 -100 c25 -9 52
-42 58 -70 2 -11 -16 -14 -99 -16 -65 -2 -103 1 -103 8 0 5 8 23 17 38 26 45
74 61 127 40z"/>
<path d="M671 1354 c-51 -15 -88 -47 -108 -93 -8 -18 -13 -34 -11 -36 2 -1 24
-7 50 -12 43 -10 47 -9 65 15 16 21 27 26 72 26 43 1 56 -3 71 -21 9 -12 17
-32 16 -45 -1 -21 -6 -23 -66 -25 -91 -2 -143 -20 -184 -61 -71 -71 -58 -195
26 -238 58 -30 146 -23 197 17 31 25 38 24 45 -6 6 -23 11 -25 57 -25 l51 0
-4 198 -3 197 -29 42 c-45 67 -149 95 -245 67z m152 -301 c22 -34 -54 -103
-112 -103 -45 0 -68 62 -33 93 28 25 131 32 145 10z"/>
<path d="M1407 893 c-2 -5 -2 -14 -1 -20 1 -7 2 -17 3 -23 1 -13 424 -11 432
2 4 6 4 19 2 29 -5 18 -18 19 -219 19 -117 0 -215 -3 -217 -7z"/>
</g>
</svg>
